<svg xmlns="http://www.w3.org/2000/svg" width="1440" height="1440" viewBox="811.7 811.7 1440 1440"><path d="M0 0v3063.3h3063.3V0H0zM1938.4 1480.5c0 9-7.3 16.3-16.3 16.3 -9 0-16.3-7.3-16.3-16.3 0-9 7.3-16.3 16.3-16.3C1931.1 1464.2 1938.4 1471.5 1938.4 1480.5zM1859.7 1325.8c9 0 16.3 7.3 16.3 16.3s-7.3 16.3-16.3 16.3 -16.3-7.3-16.3-16.3C1843.4 1333.1 1850.7 1325.8 1859.7 1325.8zM1795.5 1464.2c9 0 16.3 7.3 16.3 16.3 0 9-7.3 16.3-16.3 16.3 -9 0-16.3-7.3-16.3-16.3C1779.2 1471.5 1786.5 1464.2 1795.5 1464.2zM1619.2 1395.4c0 9-7.3 16.3-16.3 16.3s-16.3-7.3-16.3-16.3c0-9 7.3-16.3 16.3-16.3S1619.2 1386.4 1619.2 1395.4zM1600.7 1572c0 9-7.3 16.3-16.3 16.3 -9 0-16.3-7.3-16.3-16.3s7.3-16.3 16.3-16.3C1593.4 1555.7 1600.7 1563 1600.7 1572zM1575.5 1338.5c9 0 16.3 7.3 16.3 16.3 0 9-7.3 16.3-16.3 16.3 -9 0-16.3-7.3-16.3-16.3C1559.2 1345.8 1566.5 1338.5 1575.5 1338.5zM1530.4 1320.7c9 0 16.3 7.3 16.3 16.3 0 9-7.3 16.3-16.3 16.3 -9 0-16.3-7.3-16.3-16.3C1514.1 1328 1521.4 1320.7 1530.4 1320.7zM1482 1318.1c9 0 16.3 7.3 16.3 16.3 0 9-7.3 16.3-16.3 16.3 -9 0-16.3-7.3-16.3-16.3C1465.7 1325.4 1473 1318.1 1482 1318.1zM1435.6 1333.4c9 0 16.3 7.3 16.3 16.3 0 9-7.3 16.3-16.3 16.3 -9 0-16.3-7.3-16.3-16.3C1419.3 1340.7 1426.6 1333.4 1435.6 1333.4zM1402.5 1369c9 0 16.3 7.3 16.3 16.3 0 9-7.3 16.3-16.3 16.3 -9 0-16.3-7.3-16.3-16.3C1386.2 1376.3 1393.5 1369 1402.5 1369zM1394.9 1417.2c9 0 16.3 7.3 16.3 16.3s-7.3 16.3-16.3 16.3c-9 0-16.3-7.3-16.3-16.3S1385.9 1417.2 1394.9 1417.2zM1034 1640.6c0-9 7.3-16.3 16.3-16.3 9 0 16.3 7.3 16.3 16.3 0 9-7.3 16.3-16.3 16.3C1041.3 1656.9 1034 1649.6 1034 1640.6zM1063 1705.8c-9 0-16.3-7.3-16.3-16.3 0-9 7.3-16.3 16.3-16.3 9 0 16.3 7.3 16.3 16.3C1079.4 1698.5 1072 1705.8 1063 1705.8zM1102.5 1737.5c-9 0-16.3-7.3-16.3-16.3 0-9 7.3-16.3 16.3-16.3 9 0 16.3 7.3 16.3 16.3C1118.8 1730.2 1111.5 1737.5 1102.5 1737.5zM1152.7 1745.2c-9 0-16.3-7.3-16.3-16.3 0-9 7.3-16.3 16.3-16.3 9 0 16.3 7.3 16.3 16.3C1169 1737.9 1161.7 1745.2 1152.7 1745.2zM1201.7 1731.2c-9 0-16.3-7.3-16.3-16.3 0-9 7.3-16.3 16.3-16.3 9 0 16.3 7.3 16.3 16.3C1218 1723.9 1210.7 1731.2 1201.7 1731.2zM1236.7 1693.7c-9 0-16.3-7.3-16.3-16.3 0-9 7.3-16.3 16.3-16.3 9 0 16.3 7.3 16.3 16.3C1253 1686.4 1245.7 1693.7 1236.7 1693.7zM1248.7 1644.8c-9 0-16.3-7.3-16.3-16.3 0-9 7.3-16.3 16.3-16.3 9 0 16.3 7.3 16.3 16.3C1265.1 1637.5 1257.8 1644.8 1248.7 1644.8zM1248.7 1595.9c-9 0-16.3-7.3-16.3-16.3s7.3-16.3 16.3-16.3c9 0 16.3 7.3 16.3 16.3S1257.8 1595.9 1248.7 1595.9zM1248.7 1547.6c-9 0-16.3-7.3-16.3-16.3 0-9 7.3-16.3 16.3-16.3 9 0 16.3 7.3 16.3 16.3C1265.1 1540.3 1257.8 1547.6 1248.7 1547.6zM1248.7 1500.7c-9 0-16.3-7.3-16.3-16.3 0-9 7.3-16.3 16.3-16.3 9 0 16.3 7.3 16.3 16.3C1265.1 1493.4 1257.8 1500.7 1248.7 1500.7zM1248.7 1453c-9 0-16.3-7.3-16.3-16.3 0-9 7.3-16.3 16.3-16.3 9 0 16.3 7.3 16.3 16.3C1265.1 1445.7 1257.8 1453 1248.7 1453zM1248.7 1406c-9 0-16.3-7.3-16.3-16.3 0-9 7.3-16.3 16.3-16.3 9 0 16.3 7.3 16.3 16.3C1265.1 1398.7 1257.8 1406 1248.7 1406zM1248.7 1358.4c-9 0-16.3-7.3-16.3-16.3s7.3-16.3 16.3-16.3c9 0 16.3 7.3 16.3 16.3S1257.8 1358.4 1248.7 1358.4zM1362 1646.3c0-9 7.3-16.3 16.3-16.3 9 0 16.3 7.3 16.3 16.3 0 9-7.3 16.3-16.3 16.3C1369.3 1662.6 1362 1655.3 1362 1646.3zM1396.2 1707.7c-9 0-16.3-7.3-16.3-16.3 0-9 7.3-16.3 16.3-16.3 9 0 16.3 7.3 16.3 16.3C1412.5 1700.4 1405.2 1707.7 1396.2 1707.7zM1400.2 1477.3c0-9 7.3-16.3 16.3-16.3s16.3 7.3 16.3 16.3c0 9-7.3 16.3-16.3 16.3S1400.2 1486.4 1400.2 1477.3zM1436.2 1735c-9 0-16.3-7.3-16.3-16.3s7.3-16.3 16.3-16.3c9 0 16.3 7.3 16.3 16.3S1445.2 1735 1436.2 1735zM1454.7 1522.9c-9 0-16.3-7.3-16.3-16.3 0-9 7.3-16.3 16.3-16.3 9 0 16.3 7.3 16.3 16.3C1471 1515.6 1463.7 1522.9 1454.7 1522.9zM1483.9 1744.5c-9 0-16.3-7.3-16.3-16.3 0-9 7.3-16.3 16.3-16.3 9 0 16.3 7.3 16.3 16.3C1500.3 1737.2 1492.9 1744.5 1483.9 1744.5zM1499.2 1542.6c-9 0-16.3-7.3-16.3-16.3 0-9 7.3-16.3 16.3-16.3 9 0 16.3 7.3 16.3 16.3C1515.5 1535.3 1508.2 1542.6 1499.2 1542.6zM1532.9 1741.4c-9 0-16.3-7.3-16.3-16.3 0-9 7.3-16.3 16.3-16.3 9 0 16.3 7.3 16.3 16.3C1549.2 1734 1541.9 1741.4 1532.9 1741.4zM1544.4 1561c-9 0-16.3-7.3-16.3-16.3 0-9 7.3-16.3 16.3-16.3 9 0 16.3 7.3 16.3 16.3C1560.7 1553.7 1553.4 1561 1544.4 1561zM1576.8 1719.8c-9 0-16.3-7.3-16.3-16.3 0-9 7.3-16.3 16.3-16.3s16.3 7.3 16.3 16.3C1593.1 1712.4 1585.8 1719.8 1576.8 1719.8zM1604.1 1679.8c-9 0-16.3-7.3-16.3-16.3 0-9 7.3-16.3 16.3-16.3 9 0 16.3 7.3 16.3 16.3S1613.1 1679.8 1604.1 1679.8zM1607.3 1631.5c-9 0-16.3-7.3-16.3-16.3s7.3-16.3 16.3-16.3 16.3 7.3 16.3 16.3S1616.3 1631.5 1607.3 1631.5zM1704.5 1737.5c-9 0-16.3-7.3-16.3-16.3 0-9 7.3-16.3 16.3-16.3 9 0 16.3 7.3 16.3 16.3C1720.8 1730.2 1713.5 1737.5 1704.5 1737.5zM1723 1688.6c-9 0-16.3-7.3-16.3-16.3s7.3-16.3 16.3-16.3c9 0 16.3 7.3 16.3 16.3S1732 1688.6 1723 1688.6zM1740.8 1641c-9 0-16.3-7.3-16.3-16.3 0-9 7.3-16.3 16.3-16.3 9 0 16.3 7.3 16.3 16.3C1757.1 1633.7 1749.8 1641 1740.8 1641zM1759.2 1592.7c-9 0-16.3-7.3-16.3-16.3 0-9 7.3-16.3 16.3-16.3 9 0 16.3 7.3 16.3 16.3C1775.5 1585.4 1768.2 1592.7 1759.2 1592.7zM1777 1545.1c-9 0-16.3-7.3-16.3-16.3 0-9 7.3-16.3 16.3-16.3 9 0 16.3 7.3 16.3 16.3C1793.3 1537.8 1786 1545.1 1777 1545.1zM1808.8 1592.7c-9 0-16.3-7.3-16.3-16.3 0-9 7.3-16.3 16.3-16.3s16.3 7.3 16.3 16.3C1825.1 1585.4 1817.8 1592.7 1808.8 1592.7zM1813.3 1448.6c-9 0-16.3-7.3-16.3-16.3 0-9 7.3-16.3 16.3-16.3 9 0 16.3 7.3 16.3 16.3C1829.6 1441.3 1822.3 1448.6 1813.3 1448.6zM1815.4 1384c0-9 7.3-16.3 16.3-16.3s16.3 7.3 16.3 16.3c0 9-7.3 16.3-16.3 16.3S1815.4 1393 1815.4 1384zM1859.1 1592.7c-9 0-16.3-7.3-16.3-16.3 0-9 7.3-16.3 16.3-16.3 9 0 16.3 7.3 16.3 16.3C1875.4 1585.4 1868.1 1592.7 1859.1 1592.7zM1869.5 1384c0-9 7.3-16.3 16.3-16.3 9 0 16.3 7.3 16.3 16.3 0 9-7.3 16.3-16.3 16.3C1876.8 1400.3 1869.5 1393 1869.5 1384zM1904.2 1416c9 0 16.3 7.3 16.3 16.3s-7.3 16.3-16.3 16.3c-9 0-16.3-7.3-16.3-16.3C1887.9 1423.3 1895.2 1416 1904.2 1416zM1908.7 1592.7c-9 0-16.3-7.3-16.3-16.3 0-9 7.3-16.3 16.3-16.3 9 0 16.3 7.3 16.3 16.3C1925 1585.4 1917.7 1592.7 1908.7 1592.7zM1924.2 1528.8c0-9 7.3-16.3 16.3-16.3 9 0 16.3 7.3 16.3 16.3 0 9-7.3 16.3-16.3 16.3C1931.5 1545.1 1924.2 1537.8 1924.2 1528.8zM1942 1576.4c0-9 7.3-16.3 16.3-16.3 9 0 16.3 7.3 16.3 16.3 0 9-7.3 16.3-16.3 16.3C1949.3 1592.7 1942 1585.4 1942 1576.4zM1960.4 1624.7c0-9 7.3-16.3 16.3-16.3 9 0 16.3 7.3 16.3 16.3 0 9-7.3 16.3-16.3 16.3C1967.7 1641 1960.4 1633.7 1960.4 1624.7zM1978.2 1672.3c0-9 7.3-16.3 16.3-16.3 9 0 16.3 7.3 16.3 16.3s-7.3 16.3-16.3 16.3C1985.5 1688.6 1978.2 1681.3 1978.2 1672.3zM2013 1737.5c-9 0-16.3-7.3-16.3-16.3 0-9 7.3-16.3 16.3-16.3 9 0 16.3 7.3 16.3 16.3C2029.3 1730.2 2022 1737.5 2013 1737.5z" fill="#FFF"/></svg>
