<?xml version="1.0" encoding="utf-8"?>
<!-- Generator: Adobe Illustrator 15.1.0, SVG Export Plug-In  -->
<!DOCTYPE svg PUBLIC "-//W3C//DTD SVG 1.1//EN" "http://www.w3.org/Graphics/SVG/1.1/DTD/svg11.dtd" [
	<!ENTITY ns_flows "http://ns.adobe.com/Flows/1.0/">
]>
<svg version="1.1"
	 xmlns="http://www.w3.org/2000/svg" xmlns:xlink="http://www.w3.org/1999/xlink" xmlns:a="http://ns.adobe.com/AdobeSVGViewerExtensions/3.0/"
	 x="0px" y="0px" width="1440px" height="1440px" viewBox="0 0 1440 1440"
	 overflow="visible" enable-background="new 0 0 1440 1440" xml:space="preserve">
<defs>
</defs>
<path fill="#FFFFFF" d="M0,0v1440h1440V0H0z M911.183,695.967c0,4.235-3.431,7.671-7.667,7.671s-7.668-3.436-7.668-7.671
	c0-4.236,3.432-7.668,7.668-7.668S911.183,691.73,911.183,695.967z M874.215,623.216c4.236,0,7.668,3.436,7.668,7.672
	c0,4.235-3.432,7.667-7.668,7.667s-7.668-3.432-7.668-7.667C866.547,626.651,869.979,623.216,874.215,623.216z M844.02,688.299
	c4.236,0,7.668,3.432,7.668,7.668c0,4.235-3.432,7.671-7.668,7.671c-4.235,0-7.668-3.436-7.668-7.671
	C836.352,691.73,839.784,688.299,844.02,688.299z M761.144,655.959c0,4.236-3.433,7.671-7.667,7.671
	c-4.236,0-7.668-3.436-7.668-7.671c0-4.235,3.432-7.668,7.668-7.668C757.711,648.291,761.144,651.724,761.144,655.959z
	 M752.476,738.956c0,4.236-3.432,7.671-7.668,7.671s-7.668-3.435-7.668-7.671s3.432-7.668,7.668-7.668
	S752.476,734.72,752.476,738.956z M740.617,629.188c4.236,0,7.667,3.432,7.667,7.667c0,4.236-3.431,7.671-7.667,7.671
	s-7.668-3.435-7.668-7.671C732.949,632.62,736.381,629.188,740.617,629.188z M719.396,620.83c4.231,0,7.667,3.432,7.667,7.667
	c0,4.235-3.436,7.671-7.667,7.671c-4.236,0-7.668-3.436-7.668-7.671C711.729,624.262,715.16,620.83,719.396,620.83z
	 M696.672,619.633c4.236,0,7.668,3.432,7.668,7.668c0,4.235-3.432,7.671-7.668,7.671s-7.667-3.436-7.667-7.671
	C689.005,623.064,692.436,619.633,696.672,619.633z M674.847,626.798c4.236,0,7.672,3.432,7.672,7.668
	c0,4.236-3.436,7.671-7.672,7.671c-4.235,0-7.667-3.436-7.667-7.671C667.18,630.23,670.611,626.798,674.847,626.798z M659.3,643.52
	c4.236,0,7.672,3.432,7.672,7.668c0,4.235-3.436,7.671-7.672,7.671s-7.668-3.436-7.668-7.671
	C651.632,646.951,655.063,643.52,659.3,643.52z M655.714,666.209c4.236,0,7.668,3.432,7.668,7.668s-3.432,7.671-7.668,7.671
	s-7.672-3.435-7.672-7.671S651.478,666.209,655.714,666.209z M486.062,771.197c0-4.236,3.432-7.668,7.668-7.668
	s7.672,3.432,7.672,7.668s-3.436,7.672-7.672,7.672S486.062,775.434,486.062,771.197z M499.71,801.853
	c-4.236,0-7.668-3.436-7.668-7.671c0-4.236,3.432-7.668,7.668-7.668c4.235,0,7.671,3.432,7.671,7.668
	C507.381,798.417,503.945,801.853,499.71,801.853z M518.246,816.78c-4.236,0-7.668-3.436-7.668-7.671
	c0-4.236,3.432-7.668,7.668-7.668s7.672,3.432,7.672,7.668C525.918,813.345,522.482,816.78,518.246,816.78z M541.864,820.367
	c-4.235,0-7.667-3.437-7.667-7.671c0-4.236,3.432-7.668,7.667-7.668c4.236,0,7.672,3.432,7.672,7.668
	C549.536,816.931,546.101,820.367,541.864,820.367z M564.887,813.798c-4.236,0-7.668-3.436-7.668-7.671
	c0-4.236,3.432-7.668,7.668-7.668s7.671,3.432,7.671,7.668C572.558,810.362,569.123,813.798,564.887,813.798z M581.328,796.182
	c-4.236,0-7.668-3.435-7.668-7.671s3.432-7.668,7.668-7.668s7.671,3.432,7.671,7.668S585.564,796.182,581.328,796.182z
	 M587.01,773.198c-4.235,0-7.668-3.437-7.668-7.672s3.433-7.667,7.668-7.667c4.236,0,7.672,3.432,7.672,7.667
	S591.246,773.198,587.01,773.198z M587.01,750.207c-4.235,0-7.668-3.436-7.668-7.672s3.433-7.668,7.668-7.668
	c4.236,0,7.672,3.432,7.672,7.668S591.246,750.207,587.01,750.207z M587.01,727.517c-4.235,0-7.668-3.435-7.668-7.671
	c0-4.232,3.433-7.664,7.668-7.664c4.236,0,7.672,3.432,7.672,7.664C594.682,724.082,591.246,727.517,587.01,727.517z
	 M587.01,705.427c-4.235,0-7.668-3.432-7.668-7.667c0-4.236,3.433-7.672,7.668-7.672c4.236,0,7.672,3.436,7.672,7.672
	C594.682,701.995,591.246,705.427,587.01,705.427z M587.01,683.039c-4.235,0-7.668-3.435-7.668-7.671
	c0-4.236,3.433-7.668,7.668-7.668c4.236,0,7.672,3.432,7.672,7.668C594.682,679.604,591.246,683.039,587.01,683.039z
	 M587.01,660.946c-4.235,0-7.668-3.435-7.668-7.671s3.433-7.668,7.668-7.668c4.236,0,7.672,3.432,7.672,7.668
	S591.246,660.946,587.01,660.946z M587.01,638.555c-4.235,0-7.668-3.432-7.668-7.667c0-4.236,3.433-7.672,7.668-7.672
	c4.236,0,7.672,3.436,7.672,7.672C594.682,635.123,591.246,638.555,587.01,638.555z M640.269,773.882
	c0-4.236,3.432-7.668,7.668-7.668c4.235,0,7.671,3.432,7.671,7.668c0,4.235-3.436,7.671-7.671,7.671
	C643.7,781.553,640.269,778.117,640.269,773.882z M656.31,802.751c-4.235,0-7.671-3.435-7.671-7.671s3.436-7.668,7.671-7.668
	c4.236,0,7.668,3.432,7.668,7.668S660.546,802.751,656.31,802.751z M658.209,694.471c0-4.235,3.432-7.667,7.668-7.667
	c4.235,0,7.671,3.432,7.671,7.667c0,4.236-3.436,7.672-7.671,7.672C661.641,702.143,658.209,698.707,658.209,694.471z
	 M675.146,815.587c-4.236,0-7.672-3.435-7.672-7.671s3.436-7.667,7.672-7.667c4.235,0,7.668,3.431,7.668,7.667
	S679.381,815.587,675.146,815.587z M683.817,715.877c-4.236,0-7.672-3.432-7.672-7.668s3.436-7.671,7.672-7.671
	c4.235,0,7.667,3.435,7.667,7.671S688.053,715.877,683.817,715.877z M697.567,820.065c-4.236,0-7.668-3.436-7.668-7.672
	s3.432-7.668,7.668-7.668c4.235,0,7.671,3.432,7.671,7.668S701.803,820.065,697.567,820.065z M704.744,725.131
	c-4.236,0-7.668-3.436-7.668-7.672c0-4.232,3.432-7.668,7.668-7.668c4.235,0,7.667,3.436,7.667,7.668
	C712.411,721.695,708.979,725.131,704.744,725.131z M720.589,818.574c-4.235,0-7.668-3.437-7.668-7.672
	c0-4.236,3.433-7.668,7.668-7.668c4.236,0,7.668,3.432,7.668,7.668C728.257,815.138,724.825,818.574,720.589,818.574z
	 M725.969,733.791c-4.236,0-7.668-3.436-7.668-7.671c0-4.236,3.432-7.668,7.668-7.668s7.668,3.432,7.668,7.668
	C733.637,730.355,730.205,733.791,725.969,733.791z M741.218,808.422c-4.236,0-7.668-3.436-7.668-7.671
	c0-4.236,3.432-7.669,7.668-7.669c4.235,0,7.668,3.433,7.668,7.669C748.886,804.986,745.453,808.422,741.218,808.422z
	 M754.072,789.617c-4.236,0-7.668-3.436-7.668-7.672c0-4.235,3.432-7.668,7.668-7.668c4.235,0,7.668,3.433,7.668,7.668
	C761.74,786.182,758.308,789.617,754.072,789.617z M755.567,766.932c-4.235,0-7.668-3.437-7.668-7.672
	c0-4.236,3.433-7.668,7.668-7.668c4.236,0,7.667,3.432,7.667,7.668C763.234,763.495,759.804,766.932,755.567,766.932z
	 M801.268,816.78c-4.236,0-7.668-3.436-7.668-7.671c0-4.236,3.432-7.668,7.668-7.668s7.668,3.432,7.668,7.668
	C808.936,813.345,805.504,816.78,801.268,816.78z M809.936,793.796c-4.235,0-7.667-3.435-7.667-7.671s3.432-7.668,7.667-7.668
	c4.236,0,7.668,3.432,7.668,7.668S814.172,793.796,809.936,793.796z M818.306,771.4c-4.236,0-7.668-3.435-7.668-7.671
	c0-4.235,3.432-7.668,7.668-7.668s7.668,3.433,7.668,7.668C825.974,767.966,822.542,771.4,818.306,771.4z M826.978,748.719
	c-4.236,0-7.668-3.436-7.668-7.671c0-4.236,3.432-7.668,7.668-7.668s7.668,3.432,7.668,7.668
	C834.646,745.283,831.214,748.719,826.978,748.719z M835.348,726.327c-4.236,0-7.668-3.435-7.668-7.671s3.432-7.668,7.668-7.668
	s7.668,3.432,7.668,7.668S839.584,726.327,835.348,726.327z M850.298,748.719c-4.236,0-7.668-3.436-7.668-7.671
	c0-4.236,3.432-7.668,7.668-7.668s7.668,3.432,7.668,7.668C857.966,745.283,854.534,748.719,850.298,748.719z M852.39,680.948
	c-4.236,0-7.668-3.436-7.668-7.671c0-4.235,3.432-7.667,7.668-7.667c4.235,0,7.668,3.432,7.668,7.667
	C860.058,677.512,856.625,680.948,852.39,680.948z M853.395,650.586c0-4.235,3.432-7.667,7.667-7.667s7.667,3.432,7.667,7.667
	c0,4.236-3.432,7.671-7.667,7.671S853.395,654.823,853.395,650.586z M873.916,748.719c-4.235,0-7.667-3.436-7.667-7.671
	c0-4.236,3.432-7.668,7.667-7.668c4.236,0,7.668,3.432,7.668,7.668C881.584,745.283,878.152,748.719,873.916,748.719z
	 M878.806,650.586c0-4.235,3.432-7.667,7.668-7.667s7.668,3.432,7.668,7.667c0,4.236-3.432,7.671-7.668,7.671
	S878.806,654.823,878.806,650.586z M895.142,665.609c4.235,0,7.667,3.432,7.667,7.667c0,4.236-3.432,7.671-7.667,7.671
	c-4.236,0-7.668-3.436-7.668-7.671C887.474,669.041,890.905,665.609,895.142,665.609z M897.237,748.719
	c-4.236,0-7.668-3.436-7.668-7.671c0-4.236,3.432-7.668,7.668-7.668c4.235,0,7.667,3.432,7.667,7.668
	C904.904,745.283,901.473,748.719,897.237,748.719z M904.515,718.656c0-4.236,3.434-7.668,7.668-7.668
	c4.236,0,7.668,3.432,7.668,7.668s-3.432,7.671-7.668,7.671C907.948,726.327,904.515,722.893,904.515,718.656z M912.89,741.048
	c0-4.236,3.432-7.668,7.668-7.668c4.235,0,7.667,3.432,7.667,7.668c0,4.235-3.432,7.671-7.667,7.671
	C916.321,748.719,912.89,745.283,912.89,741.048z M921.558,763.729c0-4.235,3.432-7.668,7.668-7.668s7.667,3.433,7.667,7.668
	c0,4.236-3.431,7.671-7.667,7.671S921.558,767.966,921.558,763.729z M929.931,786.125c0-4.236,3.433-7.668,7.668-7.668
	c4.236,0,7.668,3.432,7.668,7.668s-3.432,7.671-7.668,7.671C933.363,793.796,929.931,790.361,929.931,786.125z M946.271,816.78
	c-4.236,0-7.668-3.436-7.668-7.671c0-4.236,3.432-7.668,7.668-7.668s7.668,3.432,7.668,7.668
	C953.938,813.345,950.507,816.78,946.271,816.78z"/>
</svg>
